<?xml version="1.0" encoding="UTF-8" standalone="no"?>
<!DOCTYPE svg PUBLIC "-//W3C//DTD SVG 1.1//EN"
 "http://www.w3.org/Graphics/SVG/1.1/DTD/svg11.dtd">
<!-- Generated by graphviz version 8.0.4 (20230421.1958)
 -->
<!-- Title: G Pages: 1 -->
<svg width="1052pt" height="980pt"
 viewBox="0.00 0.00 1052.25 980.00" xmlns="http://www.w3.org/2000/svg" xmlns:xlink="http://www.w3.org/1999/xlink">
<g id="graph0" class="graph" transform="scale(1 1) rotate(0) translate(4 976)">
<title>G</title>
<polygon fill="white" stroke="none" points="-4,4 -4,-976 1048.25,-976 1048.25,4 -4,4"/>
<!-- BEGIN Build -->
<g id="node1" class="node">
<title>BEGIN Build</title>
<polygon fill="#b7deff" stroke="black" points="712.88,-894 633.88,-894 633.88,-870 712.88,-870 724.88,-882 712.88,-894"/>
<text text-anchor="middle" x="679.38" y="-876.95" font-family="Times,serif" font-size="14.00">BEGIN Build</text>
</g>
<!-- Build.Synth -->
<g id="node3" class="node">
<title>Build.Synth</title>
<polygon fill="none" stroke="black" points="776,-828 694.75,-828 694.75,-792 776,-792 776,-828"/>
<text text-anchor="middle" x="735.38" y="-804.95" font-family="Times,serif" font-size="14.00">Build.Synth</text>
</g>
<!-- BEGIN Build&#45;&gt;Build.Synth -->
<g id="edge2" class="edge">
<title>BEGIN Build&#45;&gt;Build.Synth</title>
<path fill="none" stroke="black" d="M693.22,-863.7C699.8,-855.47 707.79,-845.48 715.04,-836.42"/>
<polygon fill="black" stroke="black" points="718.18,-839.1 721.69,-829.1 712.71,-834.73 718.18,-839.1"/>
</g>
<!-- END Build -->
<g id="node2" class="node">
<title>END Build</title>
<polygon fill="#b7deff" stroke="black" points="729.12,-750 663.62,-750 663.62,-726 729.12,-726 741.12,-738 729.12,-750"/>
<text text-anchor="middle" x="702.38" y="-732.95" font-family="Times,serif" font-size="14.00">END Build</text>
</g>
<!-- Build.Synth&#45;&gt;END Build -->
<g id="edge3" class="edge">
<title>Build.Synth&#45;&gt;END Build</title>
<path fill="none" stroke="black" d="M727.22,-791.7C723.54,-783.9 719.11,-774.51 715.02,-765.83"/>
<polygon fill="black" stroke="black" points="717.87,-764.66 710.44,-757.1 711.54,-767.64 717.87,-764.66"/>
</g>
<!-- UpdatePipeline.SelfMutate -->
<g id="node7" class="node">
<title>UpdatePipeline.SelfMutate</title>
<polygon fill="none" stroke="black" points="449.25,-756 285.5,-756 285.5,-720 449.25,-720 449.25,-756"/>
<text text-anchor="middle" x="367.38" y="-732.95" font-family="Times,serif" font-size="14.00">UpdatePipeline.SelfMutate</text>
</g>
<!-- Build.Synth&#45;&gt;UpdatePipeline.SelfMutate -->
<g id="edge4" class="edge">
<title>Build.Synth&#45;&gt;UpdatePipeline.SelfMutate</title>
<path fill="none" stroke="black" d="M694.59,-801.24C638.38,-790.55 535.5,-770.98 460.06,-756.63"/>
<polygon fill="black" stroke="black" points="461.08,-753.07 450.61,-754.64 459.78,-759.95 461.08,-753.07"/>
</g>
<!-- component&#45;library.cert&#45;stack.Prepare -->
<g id="node19" class="node">
<title>component&#45;library.cert&#45;stack.Prepare</title>
<polygon fill="none" stroke="black" points="561.25,-540 343.5,-540 343.5,-504 561.25,-504 561.25,-540"/>
<text text-anchor="middle" x="452.38" y="-516.95" font-family="Times,serif" font-size="14.00">component&#45;library.cert&#45;stack.Prepare</text>
</g>
<!-- Build.Synth&#45;&gt;component&#45;library.cert&#45;stack.Prepare -->
<g id="edge21" class="edge">
<title>Build.Synth&#45;&gt;component&#45;library.cert&#45;stack.Prepare</title>
<path fill="none" stroke="black" d="M743.69,-791.6C762.62,-749.17 803.35,-639.23 750.38,-576 727.42,-548.6 644.69,-535.35 572.2,-528.96"/>
<polygon fill="black" stroke="black" points="572.85,-525.41 562.59,-528.06 572.26,-532.39 572.85,-525.41"/>
</g>
<!-- component&#45;library.site.Prepare -->
<g id="node23" class="node">
<title>component&#45;library.site.Prepare</title>
<polygon fill="none" stroke="black" points="475.38,-252 291.38,-252 291.38,-216 475.38,-216 475.38,-252"/>
<text text-anchor="middle" x="383.38" y="-228.95" font-family="Times,serif" font-size="14.00">component&#45;library.site.Prepare</text>
</g>
<!-- Build.Synth&#45;&gt;component&#45;library.site.Prepare -->
<g id="edge29" class="edge">
<title>Build.Synth&#45;&gt;component&#45;library.site.Prepare</title>
<path fill="none" stroke="black" d="M751.4,-791.94C760.03,-782.04 770.31,-769 777.38,-756 797.3,-719.32 807.38,-708.74 807.38,-667 807.38,-667 807.38,-667 807.38,-377 807.38,-309.54 611.93,-268.22 486.43,-248.65"/>
<polygon fill="black" stroke="black" points="487.05,-245.05 476.64,-246.99 485.99,-251.97 487.05,-245.05"/>
</g>
<!-- Source.GemeenteNijmegen/component&#45;library&#45;infra -->
<g id="node4" class="node">
<title>Source.GemeenteNijmegen/component&#45;library&#45;infra</title>
<polygon fill="none" stroke="black" points="1044.25,-900 742.5,-900 742.5,-864 1044.25,-864 1044.25,-900"/>
<text text-anchor="middle" x="893.38" y="-876.95" font-family="Times,serif" font-size="14.00">Source.GemeenteNijmegen/component&#45;library&#45;infra</text>
</g>
<!-- Source.GemeenteNijmegen/component&#45;library&#45;infra&#45;&gt;Build.Synth -->
<g id="edge1" class="edge">
<title>Source.GemeenteNijmegen/component&#45;library&#45;infra&#45;&gt;Build.Synth</title>
<path fill="none" stroke="black" d="M853.91,-863.52C832.91,-854.21 806.88,-842.68 784.57,-832.79"/>
<polygon fill="black" stroke="black" points="786.17,-829.23 775.61,-828.38 783.33,-835.63 786.17,-829.23"/>
</g>
<!-- END Source -->
<g id="node25" class="node">
<title>END Source</title>
<polygon fill="#b7deff" stroke="black" points="923.88,-822 850.88,-822 850.88,-798 923.88,-798 935.88,-810 923.88,-822"/>
<text text-anchor="middle" x="893.38" y="-804.95" font-family="Times,serif" font-size="14.00">END Source</text>
</g>
<!-- Source.GemeenteNijmegen/component&#45;library&#45;infra&#45;&gt;END Source -->
<g id="edge39" class="edge">
<title>Source.GemeenteNijmegen/component&#45;library&#45;infra&#45;&gt;END Source</title>
<path fill="none" stroke="black" d="M893.38,-863.7C893.38,-856.24 893.38,-847.32 893.38,-838.97"/>
<polygon fill="black" stroke="black" points="896.88,-839.1 893.38,-829.1 889.88,-839.1 896.88,-839.1"/>
</g>
<!-- BEGIN UpdatePipeline -->
<g id="node5" class="node">
<title>BEGIN UpdatePipeline</title>
<polygon fill="#b7deff" stroke="black" points="427.5,-822 295.25,-822 295.25,-798 427.5,-798 439.5,-810 427.5,-822"/>
<text text-anchor="middle" x="367.38" y="-804.95" font-family="Times,serif" font-size="14.00">BEGIN UpdatePipeline</text>
</g>
<!-- BEGIN UpdatePipeline&#45;&gt;UpdatePipeline.SelfMutate -->
<g id="edge5" class="edge">
<title>BEGIN UpdatePipeline&#45;&gt;UpdatePipeline.SelfMutate</title>
<path fill="none" stroke="black" d="M367.38,-791.7C367.38,-784.24 367.38,-775.32 367.38,-766.97"/>
<polygon fill="black" stroke="black" points="370.88,-767.1 367.38,-757.1 363.88,-767.1 370.88,-767.1"/>
</g>
<!-- END UpdatePipeline -->
<g id="node6" class="node">
<title>END UpdatePipeline</title>
<polygon fill="#b7deff" stroke="black" points="137.75,-678 19,-678 19,-654 137.75,-654 149.75,-666 137.75,-678"/>
<text text-anchor="middle" x="84.38" y="-660.95" font-family="Times,serif" font-size="14.00">END UpdatePipeline</text>
</g>
<!-- UpdatePipeline.SelfMutate&#45;&gt;END UpdatePipeline -->
<g id="edge6" class="edge">
<title>UpdatePipeline.SelfMutate&#45;&gt;END UpdatePipeline</title>
<path fill="none" stroke="black" d="M296.69,-719.52C255.19,-709.25 202.73,-696.28 160.34,-685.79"/>
<polygon fill="black" stroke="black" points="161.34,-682.19 150.8,-683.18 159.66,-688.98 161.34,-682.19"/>
</g>
<!-- Assets.FileAsset1 -->
<g id="node10" class="node">
<title>Assets.FileAsset1</title>
<polygon fill="none" stroke="black" points="374.75,-612 262,-612 262,-576 374.75,-576 374.75,-612"/>
<text text-anchor="middle" x="318.38" y="-588.95" font-family="Times,serif" font-size="14.00">Assets.FileAsset1</text>
</g>
<!-- UpdatePipeline.SelfMutate&#45;&gt;Assets.FileAsset1 -->
<g id="edge7" class="edge">
<title>UpdatePipeline.SelfMutate&#45;&gt;Assets.FileAsset1</title>
<path fill="none" stroke="black" d="M365.29,-719.83C362.72,-701.58 357.51,-672.08 348.38,-648 345.01,-639.14 340.33,-630 335.67,-621.85"/>
<polygon fill="black" stroke="black" points="338.2,-620.27 330.07,-613.49 332.2,-623.86 338.2,-620.27"/>
</g>
<!-- Assets.FileAsset2 -->
<g id="node11" class="node">
<title>Assets.FileAsset2</title>
<polygon fill="none" stroke="black" points="505.75,-612 393,-612 393,-576 505.75,-576 505.75,-612"/>
<text text-anchor="middle" x="449.38" y="-588.95" font-family="Times,serif" font-size="14.00">Assets.FileAsset2</text>
</g>
<!-- UpdatePipeline.SelfMutate&#45;&gt;Assets.FileAsset2 -->
<g id="edge8" class="edge">
<title>UpdatePipeline.SelfMutate&#45;&gt;Assets.FileAsset2</title>
<path fill="none" stroke="black" d="M377.43,-719.59C391.58,-695.08 417.5,-650.19 434.06,-621.52"/>
<polygon fill="black" stroke="black" points="437.52,-623.52 439.49,-613.11 431.46,-620.02 437.52,-623.52"/>
</g>
<!-- Assets.FileAsset3 -->
<g id="node12" class="node">
<title>Assets.FileAsset3</title>
<polygon fill="none" stroke="black" points="243.75,-612 131,-612 131,-576 243.75,-576 243.75,-612"/>
<text text-anchor="middle" x="187.38" y="-588.95" font-family="Times,serif" font-size="14.00">Assets.FileAsset3</text>
</g>
<!-- UpdatePipeline.SelfMutate&#45;&gt;Assets.FileAsset3 -->
<g id="edge9" class="edge">
<title>UpdatePipeline.SelfMutate&#45;&gt;Assets.FileAsset3</title>
<path fill="none" stroke="black" d="M297.6,-719.59C275.5,-711.51 252.22,-700.03 234.38,-684 215.95,-667.44 203.52,-641.94 196.09,-622.46"/>
<polygon fill="black" stroke="black" points="199.14,-621.6 192.48,-613.36 192.55,-623.96 199.14,-621.6"/>
</g>
<!-- Assets.FileAsset4 -->
<g id="node13" class="node">
<title>Assets.FileAsset4</title>
<polygon fill="none" stroke="black" points="112.75,-612 0,-612 0,-576 112.75,-576 112.75,-612"/>
<text text-anchor="middle" x="56.38" y="-588.95" font-family="Times,serif" font-size="14.00">Assets.FileAsset4</text>
</g>
<!-- UpdatePipeline.SelfMutate&#45;&gt;Assets.FileAsset4 -->
<g id="edge10" class="edge">
<title>UpdatePipeline.SelfMutate&#45;&gt;Assets.FileAsset4</title>
<path fill="none" stroke="black" d="M295.78,-719.6C266.5,-711 232.87,-699.17 204.38,-684 181.46,-671.8 180.21,-662.04 158.38,-648 140.96,-636.8 120.9,-625.97 103.2,-617.05"/>
<polygon fill="black" stroke="black" points="105.16,-613.61 94.65,-612.3 102.04,-619.88 105.16,-613.61"/>
</g>
<!-- BEGIN component&#45;library -->
<g id="node14" class="node">
<title>BEGIN component&#45;library</title>
<polygon fill="#b7deff" stroke="black" points="660.5,-678 510.25,-678 510.25,-654 660.5,-654 672.5,-666 660.5,-678"/>
<text text-anchor="middle" x="591.38" y="-660.95" font-family="Times,serif" font-size="14.00">BEGIN component&#45;library</text>
</g>
<!-- UpdatePipeline.SelfMutate&#45;&gt;BEGIN component&#45;library -->
<g id="edge19" class="edge">
<title>UpdatePipeline.SelfMutate&#45;&gt;BEGIN component&#45;library</title>
<path fill="none" stroke="black" d="M423.32,-719.52C454.31,-709.83 493.01,-697.74 525.46,-687.6"/>
<polygon fill="black" stroke="black" points="526.25,-690.71 534.75,-684.38 524.16,-684.02 526.25,-690.71"/>
</g>
<!-- BEGIN Assets -->
<g id="node8" class="node">
<title>BEGIN Assets</title>
<polygon fill="#b7deff" stroke="black" points="327.12,-678 243.62,-678 243.62,-654 327.12,-654 339.12,-666 327.12,-678"/>
<text text-anchor="middle" x="291.38" y="-660.95" font-family="Times,serif" font-size="14.00">BEGIN Assets</text>
</g>
<!-- BEGIN Assets&#45;&gt;Assets.FileAsset1 -->
<g id="edge11" class="edge">
<title>BEGIN Assets&#45;&gt;Assets.FileAsset1</title>
<path fill="none" stroke="black" d="M298.05,-647.7C301.02,-639.98 304.6,-630.71 307.92,-622.11"/>
<polygon fill="black" stroke="black" points="311.44,-623.69 311.78,-613.1 304.91,-621.17 311.44,-623.69"/>
</g>
<!-- BEGIN Assets&#45;&gt;Assets.FileAsset2 -->
<g id="edge12" class="edge">
<title>BEGIN Assets&#45;&gt;Assets.FileAsset2</title>
<path fill="none" stroke="black" d="M330.84,-647.52C351.84,-638.21 377.87,-626.68 400.18,-616.79"/>
<polygon fill="black" stroke="black" points="401.42,-619.63 409.14,-612.38 398.58,-613.23 401.42,-619.63"/>
</g>
<!-- BEGIN Assets&#45;&gt;Assets.FileAsset3 -->
<g id="edge13" class="edge">
<title>BEGIN Assets&#45;&gt;Assets.FileAsset3</title>
<path fill="none" stroke="black" d="M265.4,-647.52C252.27,-638.68 236.16,-627.84 222,-618.3"/>
<polygon fill="black" stroke="black" points="224.27,-614.94 214.02,-612.26 220.36,-620.75 224.27,-614.94"/>
</g>
<!-- BEGIN Assets&#45;&gt;Assets.FileAsset4 -->
<g id="edge14" class="edge">
<title>BEGIN Assets&#45;&gt;Assets.FileAsset4</title>
<path fill="none" stroke="black" d="M243.25,-650.67C208.76,-640.39 161.85,-626.42 123.65,-615.04"/>
<polygon fill="black" stroke="black" points="124.71,-611.41 114.13,-611.9 122.71,-618.11 124.71,-611.41"/>
</g>
<!-- END Assets -->
<g id="node9" class="node">
<title>END Assets</title>
<polygon fill="#b7deff" stroke="black" points="275.38,-534 205.38,-534 205.38,-510 275.38,-510 287.38,-522 275.38,-534"/>
<text text-anchor="middle" x="246.38" y="-516.95" font-family="Times,serif" font-size="14.00">END Assets</text>
</g>
<!-- Assets.FileAsset1&#45;&gt;END Assets -->
<g id="edge15" class="edge">
<title>Assets.FileAsset1&#45;&gt;END Assets</title>
<path fill="none" stroke="black" d="M300.58,-575.7C291.92,-567.28 281.36,-557.02 271.87,-547.79"/>
<polygon fill="black" stroke="black" points="274.83,-545.81 265.22,-541.35 269.95,-550.83 274.83,-545.81"/>
</g>
<!-- Assets.FileAsset1&#45;&gt;component&#45;library.cert&#45;stack.Prepare -->
<g id="edge22" class="edge">
<title>Assets.FileAsset1&#45;&gt;component&#45;library.cert&#45;stack.Prepare</title>
<path fill="none" stroke="black" d="M351.84,-575.52C369.4,-566.34 391.1,-555.01 409.84,-545.22"/>
<polygon fill="black" stroke="black" points="411.09,-547.99 418.33,-540.26 407.85,-541.79 411.09,-547.99"/>
</g>
<!-- Assets.FileAsset1&#45;&gt;component&#45;library.site.Prepare -->
<g id="edge31" class="edge">
<title>Assets.FileAsset1&#45;&gt;component&#45;library.site.Prepare</title>
<path fill="none" stroke="black" d="M317.77,-575.51C316.89,-548.72 315.38,-495.88 315.38,-451 315.38,-451 315.38,-451 315.38,-377 315.38,-335.91 321.49,-324.49 340.38,-288 345.39,-278.32 352.35,-268.75 359.22,-260.46"/>
<polygon fill="black" stroke="black" points="362.36,-263.19 366.26,-253.33 357.06,-258.6 362.36,-263.19"/>
</g>
<!-- Assets.FileAsset2&#45;&gt;END Assets -->
<g id="edge16" class="edge">
<title>Assets.FileAsset2&#45;&gt;END Assets</title>
<path fill="none" stroke="black" d="M398.67,-575.52C367.86,-564.89 328.64,-551.37 297.72,-540.7"/>
<polygon fill="black" stroke="black" points="299.17,-537.16 288.57,-537.21 296.89,-543.78 299.17,-537.16"/>
</g>
<!-- Assets.FileAsset2&#45;&gt;component&#45;library.cert&#45;stack.Prepare -->
<g id="edge23" class="edge">
<title>Assets.FileAsset2&#45;&gt;component&#45;library.cert&#45;stack.Prepare</title>
<path fill="none" stroke="black" d="M450.12,-575.7C450.44,-568.24 450.82,-559.32 451.18,-550.97"/>
<polygon fill="black" stroke="black" points="454.71,-551.25 451.64,-541.1 447.72,-550.95 454.71,-551.25"/>
</g>
<!-- Assets.FileAsset2&#45;&gt;component&#45;library.site.Prepare -->
<g id="edge32" class="edge">
<title>Assets.FileAsset2&#45;&gt;component&#45;library.site.Prepare</title>
<path fill="none" stroke="black" d="M501.61,-575.52C529.9,-565.04 560.95,-551.55 570.38,-540 595.94,-508.66 589.38,-491.45 589.38,-451 589.38,-451 589.38,-451 589.38,-377 589.38,-332.27 576.49,-316.93 542.38,-288 525.78,-273.93 505.32,-263.56 484.66,-255.92"/>
<polygon fill="black" stroke="black" points="486.12,-252.38 475.52,-252.39 483.82,-258.99 486.12,-252.38"/>
</g>
<!-- Assets.FileAsset3&#45;&gt;END Assets -->
<g id="edge17" class="edge">
<title>Assets.FileAsset3&#45;&gt;END Assets</title>
<path fill="none" stroke="black" d="M201.96,-575.7C208.89,-567.47 217.31,-557.48 224.95,-548.42"/>
<polygon fill="black" stroke="black" points="228.19,-551.01 231.96,-541.1 222.84,-546.49 228.19,-551.01"/>
</g>
<!-- Assets.FileAsset3&#45;&gt;component&#45;library.cert&#45;stack.Prepare -->
<g id="edge24" class="edge">
<title>Assets.FileAsset3&#45;&gt;component&#45;library.cert&#45;stack.Prepare</title>
<path fill="none" stroke="black" d="M244.22,-577.98C282.64,-567.84 333.81,-554.32 375.81,-543.23"/>
<polygon fill="black" stroke="black" points="376.5,-546.4 385.27,-540.46 374.71,-539.63 376.5,-546.4"/>
</g>
<!-- Assets.FileAsset3&#45;&gt;component&#45;library.site.Prepare -->
<g id="edge33" class="edge">
<title>Assets.FileAsset3&#45;&gt;component&#45;library.site.Prepare</title>
<path fill="none" stroke="black" d="M185.35,-575.54C182.43,-548.77 177.38,-495.98 177.38,-451 177.38,-451 177.38,-451 177.38,-377 177.38,-313.49 244.58,-276.2 302.22,-255.9"/>
<polygon fill="black" stroke="black" points="303.13,-258.95 311.48,-252.43 300.89,-252.32 303.13,-258.95"/>
</g>
<!-- Assets.FileAsset4&#45;&gt;END Assets -->
<g id="edge18" class="edge">
<title>Assets.FileAsset4&#45;&gt;END Assets</title>
<path fill="none" stroke="black" d="M103.83,-575.52C131.53,-565.31 166.51,-552.43 194.88,-541.97"/>
<polygon fill="black" stroke="black" points="195.83,-544.98 204,-538.24 193.41,-538.41 195.83,-544.98"/>
</g>
<!-- Assets.FileAsset4&#45;&gt;component&#45;library.site.Prepare -->
<g id="edge30" class="edge">
<title>Assets.FileAsset4&#45;&gt;component&#45;library.site.Prepare</title>
<path fill="none" stroke="black" d="M65.28,-575.58C77.88,-549.3 99.38,-497.62 99.38,-451 99.38,-451 99.38,-451 99.38,-377 99.38,-293.38 199.09,-259 280.35,-244.87"/>
<polygon fill="black" stroke="black" points="280.87,-248.16 290.17,-243.08 279.73,-241.25 280.87,-248.16"/>
</g>
<!-- BEGIN component&#45;library.cert&#45;stack -->
<g id="node16" class="node">
<title>BEGIN component&#45;library.cert&#45;stack</title>
<polygon fill="#b7deff" stroke="black" points="729.25,-606 523.5,-606 523.5,-582 729.25,-582 741.25,-594 729.25,-606"/>
<text text-anchor="middle" x="632.38" y="-588.95" font-family="Times,serif" font-size="14.00">BEGIN component&#45;library.cert&#45;stack</text>
</g>
<!-- BEGIN component&#45;library&#45;&gt;BEGIN component&#45;library.cert&#45;stack -->
<g id="edge36" class="edge">
<title>BEGIN component&#45;library&#45;&gt;BEGIN component&#45;library.cert&#45;stack</title>
<path fill="none" stroke="black" d="M601.51,-647.7C606.13,-639.81 611.7,-630.3 616.83,-621.55"/>
<polygon fill="black" stroke="black" points="620.32,-623.5 622.36,-613.1 614.28,-619.96 620.32,-623.5"/>
</g>
<!-- END component&#45;library -->
<g id="node15" class="node">
<title>END component&#45;library</title>
<polygon fill="#b7deff" stroke="black" points="445.75,-30 309,-30 309,-6 445.75,-6 457.75,-18 445.75,-30"/>
<text text-anchor="middle" x="383.38" y="-12.95" font-family="Times,serif" font-size="14.00">END component&#45;library</text>
</g>
<!-- BEGIN component&#45;library.cert&#45;stack&#45;&gt;component&#45;library.cert&#45;stack.Prepare -->
<g id="edge25" class="edge">
<title>BEGIN component&#45;library.cert&#45;stack&#45;&gt;component&#45;library.cert&#45;stack.Prepare</title>
<path fill="none" stroke="black" d="M587.42,-575.52C563.06,-566.04 532.76,-554.26 507.05,-544.26"/>
<polygon fill="black" stroke="black" points="508.66,-540.74 498.07,-540.38 506.12,-547.27 508.66,-540.74"/>
</g>
<!-- END component&#45;library.cert&#45;stack -->
<g id="node17" class="node">
<title>END component&#45;library.cert&#45;stack</title>
<polygon fill="#b7deff" stroke="black" points="539.5,-390 347.25,-390 347.25,-366 539.5,-366 551.5,-378 539.5,-390"/>
<text text-anchor="middle" x="449.38" y="-372.95" font-family="Times,serif" font-size="14.00">END component&#45;library.cert&#45;stack</text>
</g>
<!-- BEGIN component&#45;library.site -->
<g id="node20" class="node">
<title>BEGIN component&#45;library.site</title>
<polygon fill="#b7deff" stroke="black" points="521.38,-318 349.38,-318 349.38,-294 521.38,-294 533.38,-306 521.38,-318"/>
<text text-anchor="middle" x="441.38" y="-300.95" font-family="Times,serif" font-size="14.00">BEGIN component&#45;library.site</text>
</g>
<!-- END component&#45;library.cert&#45;stack&#45;&gt;BEGIN component&#45;library.site -->
<g id="edge27" class="edge">
<title>END component&#45;library.cert&#45;stack&#45;&gt;BEGIN component&#45;library.site</title>
<path fill="none" stroke="black" d="M447.4,-359.7C446.54,-352.24 445.53,-343.32 444.57,-334.97"/>
<polygon fill="black" stroke="black" points="447.94,-334.64 443.33,-325.1 440.99,-335.44 447.94,-334.64"/>
</g>
<!-- component&#45;library.cert&#45;stack.Deploy -->
<g id="node18" class="node">
<title>component&#45;library.cert&#45;stack.Deploy</title>
<polygon fill="none" stroke="black" points="560.5,-468 344.25,-468 344.25,-432 560.5,-432 560.5,-468"/>
<text text-anchor="middle" x="452.38" y="-444.95" font-family="Times,serif" font-size="14.00">component&#45;library.cert&#45;stack.Deploy</text>
</g>
<!-- component&#45;library.cert&#45;stack.Deploy&#45;&gt;END component&#45;library.cert&#45;stack -->
<g id="edge26" class="edge">
<title>component&#45;library.cert&#45;stack.Deploy&#45;&gt;END component&#45;library.cert&#45;stack</title>
<path fill="none" stroke="black" d="M451.63,-431.7C451.31,-424.24 450.93,-415.32 450.57,-406.97"/>
<polygon fill="black" stroke="black" points="454.03,-406.95 450.11,-397.1 447.04,-407.25 454.03,-406.95"/>
</g>
<!-- component&#45;library.cert&#45;stack.Prepare&#45;&gt;component&#45;library.cert&#45;stack.Deploy -->
<g id="edge20" class="edge">
<title>component&#45;library.cert&#45;stack.Prepare&#45;&gt;component&#45;library.cert&#45;stack.Deploy</title>
<path fill="none" stroke="black" d="M452.38,-503.7C452.38,-496.24 452.38,-487.32 452.38,-478.97"/>
<polygon fill="black" stroke="black" points="455.88,-479.1 452.38,-469.1 448.88,-479.1 455.88,-479.1"/>
</g>
<!-- BEGIN component&#45;library.site&#45;&gt;component&#45;library.site.Prepare -->
<g id="edge34" class="edge">
<title>BEGIN component&#45;library.site&#45;&gt;component&#45;library.site.Prepare</title>
<path fill="none" stroke="black" d="M427.04,-287.7C420.22,-279.47 411.95,-269.48 404.44,-260.42"/>
<polygon fill="black" stroke="black" points="406.62,-258.57 397.55,-253.1 401.23,-263.04 406.62,-258.57"/>
</g>
<!-- END component&#45;library.site -->
<g id="node21" class="node">
<title>END component&#45;library.site</title>
<polygon fill="#b7deff" stroke="black" points="456.62,-102 298.12,-102 298.12,-78 456.62,-78 468.62,-90 456.62,-102"/>
<text text-anchor="middle" x="383.38" y="-84.95" font-family="Times,serif" font-size="14.00">END component&#45;library.site</text>
</g>
<!-- END component&#45;library.site&#45;&gt;END component&#45;library -->
<g id="edge37" class="edge">
<title>END component&#45;library.site&#45;&gt;END component&#45;library</title>
<path fill="none" stroke="black" d="M383.38,-71.7C383.38,-64.24 383.38,-55.32 383.38,-46.97"/>
<polygon fill="black" stroke="black" points="386.88,-47.1 383.38,-37.1 379.88,-47.1 386.88,-47.1"/>
</g>
<!-- component&#45;library.site.Deploy -->
<g id="node22" class="node">
<title>component&#45;library.site.Deploy</title>
<polygon fill="none" stroke="black" points="474.62,-180 292.12,-180 292.12,-144 474.62,-144 474.62,-180"/>
<text text-anchor="middle" x="383.38" y="-156.95" font-family="Times,serif" font-size="14.00">component&#45;library.site.Deploy</text>
</g>
<!-- component&#45;library.site.Deploy&#45;&gt;END component&#45;library.site -->
<g id="edge35" class="edge">
<title>component&#45;library.site.Deploy&#45;&gt;END component&#45;library.site</title>
<path fill="none" stroke="black" d="M383.38,-143.7C383.38,-136.24 383.38,-127.32 383.38,-118.97"/>
<polygon fill="black" stroke="black" points="386.88,-119.1 383.38,-109.1 379.88,-119.1 386.88,-119.1"/>
</g>
<!-- component&#45;library.site.Prepare&#45;&gt;component&#45;library.site.Deploy -->
<g id="edge28" class="edge">
<title>component&#45;library.site.Prepare&#45;&gt;component&#45;library.site.Deploy</title>
<path fill="none" stroke="black" d="M383.38,-215.7C383.38,-208.24 383.38,-199.32 383.38,-190.97"/>
<polygon fill="black" stroke="black" points="386.88,-191.1 383.38,-181.1 379.88,-191.1 386.88,-191.1"/>
</g>
<!-- BEGIN Source -->
<g id="node24" class="node">
<title>BEGIN Source</title>
<polygon fill="#b7deff" stroke="black" points="930.62,-966 844.12,-966 844.12,-942 930.62,-942 942.62,-954 930.62,-966"/>
<text text-anchor="middle" x="893.38" y="-948.95" font-family="Times,serif" font-size="14.00">BEGIN Source</text>
</g>
<!-- BEGIN Source&#45;&gt;Source.GemeenteNijmegen/component&#45;library&#45;infra -->
<g id="edge38" class="edge">
<title>BEGIN Source&#45;&gt;Source.GemeenteNijmegen/component&#45;library&#45;infra</title>
<path fill="none" stroke="black" d="M893.38,-935.7C893.38,-928.24 893.38,-919.32 893.38,-910.97"/>
<polygon fill="black" stroke="black" points="896.88,-911.1 893.38,-901.1 889.88,-911.1 896.88,-911.1"/>
</g>
</g>
</svg>
